<?xml version="1.0"?>
<svg xmlns="http://www.w3.org/2000/svg" viewBox="0 0 64 64" width="512" height="512"><g id="Layer_21" data-name="Layer 21"><path d="M61.949,32.6l-2.392-.8a6.975,6.975,0,0,1-3.251-2.266l-.123-.155A8.955,8.955,0,0,0,49.155,26H39.277L24.515,17.143A1,1,0,0,0,24,17H19a1,1,0,0,0-.707,1.707L25.586,26H13.535l-7.7-11.555A1,1,0,0,0,5,14H1a1,1,0,0,0-.949,1.316L3.612,26H2.94a2.94,2.94,0,0,0-1.589,5.414l1.52.977-2.7,4.054A1,1,0,0,0,1,38H3a1,1,0,0,0,.6-.2l8-6A1,1,0,0,0,11,30H5a1,1,0,0,0-.832.445l-.188.282-1.547-1A.94.94,0,0,1,2.94,28H49.155a6.977,6.977,0,0,1,3.6,1H52.5a2.5,2.5,0,0,0,0,5h7.276c.014,0,.026-.007.039-.008l1.5.5a1,1,0,0,1,.684.949v.118a1,1,0,0,1-.684.949l-2.169.722A14.97,14.97,0,0,1,54.4,38H39.333l.267-.2A1,1,0,0,0,39,36H28a1,1,0,0,0-.737.324L25.727,38H19.7a14.973,14.973,0,0,1-8.111-2.382l-.637-.41A1,1,0,1,0,9.869,36.89l.637.41A16.972,16.972,0,0,0,19.7,40h4.194l-7.63,8.324A1,1,0,0,0,17,50h6a1,1,0,0,0,.6-.2L36.667,40H54.4a16.967,16.967,0,0,0,5.376-.873l2.17-.723A3,3,0,0,0,64,35.559v-.118A3,3,0,0,0,61.949,32.6ZM5.535,32H8L3.07,35.7Zm.186-6L2.387,16H4.465l6.666,10Zm22.693,0-7-7h2.309L35.39,26ZM52,31.5a.5.5,0,0,1,.5-.5h2.446a9.072,9.072,0,0,0,1.009,1H52.5A.5.5,0,0,1,52,31.5ZM22.667,48H19.273L28.44,38H36Z"/><path d="M46,33V32a1,1,0,0,0-2,0v1a1,1,0,0,0,2,0Z"/><path d="M41,34a1,1,0,0,0,1-1V32a1,1,0,0,0-2,0v1A1,1,0,0,0,41,34Z"/><path d="M38,33V32a1,1,0,0,0-2,0v1a1,1,0,0,0,2,0Z"/><path d="M34,33V32a1,1,0,0,0-2,0v1a1,1,0,0,0,2,0Z"/><path d="M30,33V32a1,1,0,0,0-2,0v1a1,1,0,0,0,2,0Z"/><path d="M26,33V32a1,1,0,0,0-2,0v1a1,1,0,0,0,2,0Z"/><path d="M22,33V32a1,1,0,0,0-2,0v1a1,1,0,0,0,2,0Z"/><path d="M18,33V32a1,1,0,0,0-2,0v1a1,1,0,0,0,2,0Z"/></g></svg>
