<svg id="Layer_1" enable-background="new 0 0 500 500" viewBox="0 0 500 500" xmlns="http://www.w3.org/2000/svg"><path clip-rule="evenodd" d="m425.043 440.135c-14.067 2.928-31.188-4.444-50.762-21.93 0-.027-.055-.054-.109-.082 0-.027-.054-.055-.054-.082l-37.458-30.801c-2.672-2.208-6.652-1.821-8.887.862-2.181 2.693-1.799 6.668.872 8.876l32.387 26.635c-16.793 18.108-33.75 27.486-50.489 27.884-17.775.425-36.422-9.335-55.342-28.985l-6.107-50.38c-.382-3.457-3.544-5.932-6.979-5.507-3.49.414-5.943 3.56-5.507 7.012l5.998 49.775c-33.762 39.942-67.835 39.981-105.777 3.969l32.224-38.331c2.235-2.666 1.854-6.641-.763-8.888-2.672-2.246-6.652-1.892-8.888.774l-35.713 42.496c-19.52 18.195-36.368 26.128-50.108 23.527-11.286-2.116-21.646-11.63-30.752-28.32 29.388-9.285 52.343-26.771 68.428-52.054 5.125-8.053 7.633-11.913 13.849-18.871 18.484-20.681 39.203-38.331 61.558-52.441 1.799-1.112 2.89-3.021 2.944-5.104.491-13.391 2.944-27.54 7.688-44.252 9.664-4.815 15.215-16.645 22.028-22.927l34.568 17.431c1.363.682 3.217 1.603 5.398 2.486 25.081 30.403 48.69 64.748 72.245 104.959.382.66.872 1.243 1.472 1.734 39.748 32.11 81.405 52.523 123.879 60.751-9.27 17.309-19.957 27.314-31.843 29.784zm-258.663-218.042c6.816 5.153 18.702 12.579 22.41 13.277.654-.027 1.309-.164 1.908-.387.283-14.012 5.052-38.095 7.851-55.816-1.854.251-3.708.6-5.616 1.042-3.271.752-6.543-1.172-7.47-4.378-.981-3.212.763-6.587 3.926-7.715l22.737-8.102c2.399-.84 3.762-2.999 3.49-5.496l-3.98-38.32c-6.87 14.138-18.756 25.495-33.642 31.526 4.58 37.903.763 62.39-11.614 74.369zm-17.23-73.842c-1.309-8.948-2.399-16.69-3.271-21.695-2.072-12.399-1.636-19.852 6.434-28.729 9.324-10.18 22.9-10.185 32.66-8.402 6.816 1.243 13.359 4.144 19.52 8.653-3.598 18.495-17.12 33.745-35.277 39.383-2.944.921-4.798 3.822-4.362 6.881 4.471 33.085 2.672 55.669-5.18 66.285-3.763-15.033-7.743-42.775-10.524-62.376zm38.603-72.037c-.327.207-.6.469-.763.758 4.662.699 10.469 2.726 14.831 4.831l26.771-14.073c1.745-.916 3.871-.96 5.671-.103l10.632 5.038c1.527.736 2.726 2.083 3.272 3.713l11.341 34.339c1.309-1.374 2.508-2.77 3.762-4.22l3.708-16.079c.273-1.271.218-2.29-.218-3.522l-12.76-35.818c-.873-2.454-2.89-3.975-5.453-4.182l-10.032-.785c-2.726-.207-4.962.355-7.252 1.832zm158.72 104.419-19.356-14.411c-.545-2.688-1.636-5.202-3.217-7.301-3.871-5.044-10.087-7.148-17.121-5.774-8.451 1.636-20.392 13.397-39.421 34.514-1.09 1.156-2.072 2.246-2.944 3.239l-7.96-4.509 1.254-56.334c4.853-4.193 9.596-8.915 14.122-14.182 17.23 10.916 36.15 20.572 56.433 28.75zm13.959 37.916c1.526-2.039 2.072-4.482 1.799-6.816l-2.89-5.736-34.186-25.49-9.923 16.194 31.951 23.783c4.198 3.119 10.141 2.247 13.249-1.935zm-118.264-92.331c-3.157 2.535-11.424 7.135-15.158 8.686-.273.109-.491.207-.709.305l-3.326-32.049c-.691-6.735-4.102-9.775-8.833-13.582l17.557-9.209 5.343 2.541 12.432 37.567c-2.398 2.06-4.797 3.979-7.306 5.741zm2.672 13.424-.872 39.394c-7.73-4.837-12.215-8.154-21.428-10.829 4.035-3.735 6.216-9.231 5.616-14.999l-.491-4.94c5.089-1.865 10.948-4.835 15.485-7.568v-.011c.545-.344 1.145-.688 1.69-1.047zm-35.713 52.692c-1.527 9.073-3.271 19.34-4.471 28.151 3.162-3.953 6.488-7.731 10.687-10.283 1.854-1.134 4.199-1.221 6.107-.251l38.112 19.198c11.614 5.85 17.12 5.229 22.464-2.595l31.951-51.901c1.159-2.155 2.652-10.657-4.798-9.122-.327.071-3.653.938-13.795 10.763-6.488 6.314-13.522 14.122-18.702 19.825-2.617 2.89-4.852 5.398-6.488 7.11-2.017 2.094-5.18 2.552-7.688 1.107-10.269-5.888-20.45-11.382-30.534-17.966-6.434-4.204-13.249-6.679-20.556-7.475-.653 4.115-1.471 8.706-2.289 13.439zm114.773 79.011-1.309-53.428-14.013-10.436-15.921 25.812c-4.908 7.124-9.841 10.416-15.43 11.756 22.3 28.113 43.51 59.48 64.556 95.45 7.797 6.232 15.648 11.99 23.5 17.279l-40.729-83.825c-.436-.815-.599-1.709-.654-2.608zm147.979 131.272c-.927-1.745-2.672-2.95-4.58-3.255-27.698-4.302-55.124-14.1-81.95-29.22l-48.854-100.471-1.036-42.191c5.569 4.166 9.497 7.492 17.339 7.492 7.02 0 13.588-3.257 17.775-8.898 6.216-8.342 5.616-19.683-.763-27.333l-31.351-61.945c-.709-1.369-1.908-2.443-3.326-3.01-21.101-8.353-40.73-18.342-58.341-29.705l2.454-10.85c.818-3.615.654-7.077-.6-10.567l-12.758-35.822c-2.563-7.132-8.833-11.935-16.357-12.53l-10.032-.78c-5.507-.425-10.469.829-15.103 3.828l-43.51 28.271c-3.708 2.41-6.052 6.183-6.597 10.311-12.65.316-23.5 4.885-31.242 13.369-11.45 12.48-12.159 24.318-9.596 39.366.873 4.842 1.963 12.502 3.217 21.368 4.37 30.733 9.897 69.301 15.212 75.718 2.454 3.146 7.688 7.333 15.648 12.48 6.816 4.444 12.268 7.372 16.357 8.778-3.817 14.444-5.998 27.191-6.706 39.356-22.301 14.438-42.965 32.229-61.503 52.932-6.816 7.682-9.705 12.077-15.103 20.523-15.812 24.956-38.221 40.899-68.428 48.755-3.855 1-5.851 5.278-4.144 8.833 11.995 25.01 26.117 38.728 43.238 41.945 17.066 3.212 35.713-4.291 56.869-22.889 41.453 39.337 82.925 41.448 121.371-1.778 40.916 40.128 82.318 39.253 121.207-2.955 42.616 35.294 78.052 27.256 101.361-23.506.813-1.792.759-3.875-.168-5.62z" fill-rule="evenodd"/></svg>