<svg id="Image" height="512" viewBox="0 0 64 64" width="512" xmlns="http://www.w3.org/2000/svg"><path d="m62.371 7.071-2.717-1.086a1.142 1.142 0 0 1 -.636-.636l-1.089-2.721a1 1 0 0 0 -1.858 0l-1.089 2.721a1.143 1.143 0 0 1 -.635.636l-2.718 1.086a1 1 0 0 0 0 1.858l2.717 1.086a1.142 1.142 0 0 1 .636.636l1.089 2.721a1 1 0 0 0 1.858 0l1.089-2.721a1.143 1.143 0 0 1 .635-.636l2.718-1.086a1 1 0 0 0 0-1.858zm-3.461 1.087a3.162 3.162 0 0 0 -1.75 1.75l-.16.4-.16-.4a3.161 3.161 0 0 0 -1.751-1.75l-.395-.158.4-.158a3.162 3.162 0 0 0 1.75-1.75l.16-.4.16.4a3.161 3.161 0 0 0 1.751 1.75l.391.158z"/><path d="m40.371 47.071-2.717-1.086a1.142 1.142 0 0 1 -.636-.636l-1.089-2.721a1 1 0 0 0 -1.858 0l-1.089 2.721a1.143 1.143 0 0 1 -.635.636l-2.718 1.086a1 1 0 0 0 0 1.858l2.717 1.086a1.142 1.142 0 0 1 .636.636l1.089 2.721a1 1 0 0 0 1.858 0l1.089-2.721a1.143 1.143 0 0 1 .635-.636l2.718-1.086a1 1 0 0 0 0-1.858zm-3.461 1.087a3.162 3.162 0 0 0 -1.75 1.75l-.16.4-.16-.4a3.161 3.161 0 0 0 -1.751-1.75l-.395-.158.4-.158a3.162 3.162 0 0 0 1.75-1.75l.16-.4.16.4a3.161 3.161 0 0 0 1.751 1.75l.395.158z"/><path d="m4.982 18.651 1.089 2.721a1 1 0 0 0 1.858 0l1.089-2.721a1.143 1.143 0 0 1 .635-.636l2.718-1.086a1 1 0 0 0 0-1.858l-2.717-1.086a1.142 1.142 0 0 1 -.636-.636l-1.089-2.721a1 1 0 0 0 -1.858 0l-1.089 2.721a1.143 1.143 0 0 1 -.635.636l-2.718 1.086a1 1 0 0 0 0 1.858l2.717 1.086a1.142 1.142 0 0 1 .636.636zm.108-2.809a3.162 3.162 0 0 0 1.75-1.75l.16-.4.16.4a3.161 3.161 0 0 0 1.751 1.75l.395.158-.4.158a3.162 3.162 0 0 0 -1.75 1.75l-.16.4-.16-.4a3.161 3.161 0 0 0 -1.751-1.75l-.391-.158z"/><path d="m58.847 50.146a25.2 25.2 0 0 1 -6.469-.419l-4.753-17.889a8.884 8.884 0 0 0 5.275-10.529c-.412-1.549-1.545-4.512-2.831-7.679l-.014-.034c-2.233-5.5-4.92-11.6-5.1-12a1 1 0 0 0 -1.176-.562l-10.04 2.713a1 1 0 0 0 -.733 1.069c.071.686 1.769 16.831 2.9 21.075a8.735 8.735 0 0 0 9.789 6.464l4.754 17.891a25.567 25.567 0 0 1 -5.4 3.629 2.074 2.074 0 0 0 -1.074 2.381 1 1 0 0 0 1.227.709l15.059-4.065a1 1 0 0 0 .706-1.221 2.07 2.07 0 0 0 -2.12-1.533zm-21.01-24.769c-.945-3.556-2.38-16.478-2.752-19.922l8.385-2.265c.73 1.678 2.515 5.784 4.175 9.81h-8.645a1 1 0 0 0 0 2h9.461c1.154 2.86 2.139 5.458 2.5 6.823a6.872 6.872 0 0 1 -4.806 8.4 6.757 6.757 0 0 1 -8.318-4.846zm11.2 28.48a27.551 27.551 0 0 0 2.826-2.185 28.326 28.326 0 0 0 3.515.472z"/><path d="m30.261 9.747-10.04-2.712a1 1 0 0 0 -1.176.562c-.277.629-6.813 15.468-7.941 19.712a8.884 8.884 0 0 0 5.271 10.529l-4.753 17.889a25.336 25.336 0 0 1 -6.469.419c-1.885-.132-2.948 2.336-1.414 2.751l15.061 4.068a1 1 0 0 0 1.227-.709 2.075 2.075 0 0 0 -1.073-2.381 25.56 25.56 0 0 1 -5.4-3.629l4.754-17.891a8.737 8.737 0 0 0 9.792-6.464c1.128-4.244 2.826-20.389 2.9-21.075a1 1 0 0 0 -.739-1.069zm-21.661 48.393a27.285 27.285 0 0 0 3.531-.468 28.689 28.689 0 0 0 2.807 2.18zm9.239-21.914a6.872 6.872 0 0 1 -4.806-8.4c.944-3.553 6.1-15.452 7.493-18.633l8.385 2.265c-.165 1.529-.54 4.928-.989 8.545h-9.922a1 1 0 0 0 0 2h9.673c-.5 3.892-1.061 7.69-1.51 9.377a6.754 6.754 0 0 1 -8.32 4.846z"/><circle cx="17" cy="26" r="1"/><circle cx="21" cy="33" r="1"/><circle cx="24.956" cy="24.956" r="1"/><circle cx="43" cy="18" r="1"/><circle cx="40" cy="21" r="1"/><circle cx="48" cy="21" r="1"/><circle cx="44" cy="23" r="1"/><circle cx="42" cy="27" r="1"/><circle cx="47" cy="27" r="1"/><circle cx="16" cy="31" r="1"/><circle cx="21" cy="29" r="1"/></svg>