<svg id="Capa_1" enable-background="new 0 0 512.002 512.002" height="512" viewBox="0 0 512.002 512.002" width="512" xmlns="http://www.w3.org/2000/svg"><g><path d="m107.179 512.002c-6.323 0-12.401-2.16-17.361-6.217l-79.726-65.213c-5.686-4.65-9.22-11.237-9.952-18.546-.731-7.309 1.427-14.466 6.078-20.151l62.978-76.993c2.622-3.207 7.347-3.68 10.554-1.057 3.206 2.623 3.679 7.348 1.057 10.554l-45.546 55.683 99.077 81.042 89.069-108.891-99.077-81.042-24.138 29.51c-2.623 3.206-7.349 3.679-10.554 1.057-3.206-2.623-3.679-7.348-1.057-10.554l28.887-35.315c22.554-27.573 50.105-42.855 76.75-57.634 27.418-15.208 55.77-30.934 79.975-60.526l34.633-42.34c4.127-5.046 10.883-6.705 16.695-4.616l33.764-41.278c5.751-7.032 10.404-14.277 14.904-21.285 2.78-4.329 5.405-8.418 8.196-12.322 2.41-3.369 7.094-4.149 10.463-1.739 3.37 2.409 4.148 7.093 1.739 10.463-2.573 3.6-5.101 7.536-7.777 11.703-4.508 7.021-9.618 14.979-15.916 22.677l-33.221 40.615 11.611 9.497 39.684-48.517c7.194-8.794 16.269-13.893 25.553-14.356 6.432-.326 16.281 1.454 26.564 11.737.404.403.76.852 1.062 1.336.667 1.07 16.18 26.65 2.718 65.302-3.443 9.886-8.853 17.835-13.626 24.848-3.566 5.24-6.646 9.765-8.066 13.844-1.317 3.784-1.083 7.854.661 11.461s4.788 6.32 8.571 7.638c7.811 2.72 16.378-1.421 19.1-9.232 1.42-4.079 1.818-9.538 2.278-15.859.617-8.461 1.315-18.051 4.759-27.937 5.949-17.082 14.766-27.571 22.544-36.825 9.242-10.995 15.919-18.939 15.919-34.819 0-29.594-35.8-35.578-37.324-35.818-2.095-.331-3.971-1.535-5.13-3.311-.349-.517-9.329-13.576-26.533-13.576-5.655 0-10.503.889-14.82 2.719-3.815 1.616-8.216-.166-9.832-3.979-1.616-3.814.166-8.216 3.979-9.832 6.205-2.63 12.967-3.908 20.673-3.908 20.001 0 32.347 12.029 36.999 17.613 17.829 3.722 46.986 17.982 46.986 50.09 0 21.347-9.881 33.103-19.436 44.471-7.286 8.668-14.819 17.63-19.861 32.107-2.792 8.017-3.387 16.19-3.963 24.093-.515 7.073-1.002 13.754-3.073 19.703-4.308 12.366-15.946 20.133-28.358 20.135-3.267 0-6.585-.538-9.84-1.671-7.567-2.636-13.655-8.061-17.143-15.275-3.487-7.214-3.957-15.355-1.321-22.923 2.072-5.948 5.841-11.486 9.831-17.35 4.458-6.551 9.069-13.326 11.861-21.342 9.988-28.679 1.151-47.894-.917-51.778-4.898-4.67-9.779-6.915-14.513-6.681-4.998.25-10.214 3.4-14.69 8.872l-40.227 49.18c3.199 5.283 2.913 12.233-1.214 17.279l-34.633 42.341c-6.196 7.575-11.576 15.344-16.448 23.751-2.076 3.584-6.665 4.807-10.25 2.729-3.584-2.077-4.806-6.666-2.729-10.25 5.278-9.109 11.106-17.525 17.816-25.728l13.86-16.945-27.091-22.16-13.861 16.945c-24.153 29.528-51.412 45.809-78.112 60.702l2.076 40.963c.239 4.718 2.384 8.965 6.038 11.958 3.655 2.994 8.245 4.26 12.913 3.565l40.618-6.038c3.712-11.922 7.633-24.171 12.648-36.416 1.57-3.833 5.951-5.668 9.783-4.098 3.833 1.57 5.668 5.95 4.098 9.783-5.316 12.98-9.435 26.255-13.419 39.092-9.097 29.316-18.504 59.631-42.68 89.187l-111.251 136.007c-4.65 5.686-11.237 9.22-18.546 9.952-.933.093-1.865.139-2.79.139zm-81.417-110.33-7.934 9.7c-2.114 2.584-3.095 5.837-2.762 9.16.333 3.322 1.939 6.316 4.523 8.43l79.726 65.213c2.585 2.114 5.839 3.096 9.16 2.762 3.322-.333 6.316-1.939 8.43-4.523l7.934-9.7zm108.206-131.994 98.805 80.819c16.133-21.61 24.315-43.471 31.587-66.237l-33.439 4.971c-8.782 1.307-17.756-1.173-24.624-6.798s-11.064-13.937-11.514-22.803l-1.703-33.598c-21.417 12.008-41.645 24.334-59.112 43.646zm175.191-141.029 27.091 22.16 11.275-13.785-27.091-22.16zm-34.168 326.747c-4.142 0-7.5-3.358-7.5-7.5v-9.346h-9.346c-4.142 0-7.5-3.358-7.5-7.5s3.358-7.5 7.5-7.5h9.346v-9.346c0-4.142 3.358-7.5 7.5-7.5s7.5 3.358 7.5 7.5v9.346h9.346c4.142 0 7.5 3.358 7.5 7.5s-3.358 7.5-7.5 7.5h-9.346v9.346c0 4.142-3.358 7.5-7.5 7.5zm18.346-83.715c-4.411 0-8-3.589-8-8s3.589-8 8-8 8 3.589 8 8-3.589 8-8 8zm107.473-38.295c-12.407 0-22.5-10.093-22.5-22.5s10.093-22.5 22.5-22.5 22.5 10.093 22.5 22.5-10.093 22.5-22.5 22.5zm0-30c-4.136 0-7.5 3.365-7.5 7.5 0 4.136 3.364 7.5 7.5 7.5 4.135 0 7.5-3.364 7.5-7.5 0-4.135-3.365-7.5-7.5-7.5zm-366.578-13.308c-4.411 0-8-3.589-8-8s3.589-8 8-8 8 3.589 8 8-3.588 8-8 8zm414.425-16.262c-13.976 0-25.347-11.371-25.347-25.347s11.371-25.347 25.347-25.347 25.347 11.371 25.347 25.347c-.001 13.977-11.371 25.347-25.347 25.347zm0-35.693c-5.705 0-10.347 4.642-10.347 10.347s4.642 10.347 10.347 10.347 10.347-4.642 10.347-10.347-4.642-10.347-10.347-10.347zm-387.784 3.154c-4.142 0-7.5-3.358-7.5-7.5v-9.346h-9.345c-4.142 0-7.5-3.358-7.5-7.5s3.358-7.5 7.5-7.5h9.345v-9.345c0-4.142 3.358-7.5 7.5-7.5s7.5 3.358 7.5 7.5v9.345h9.346c4.142 0 7.5 3.358 7.5 7.5s-3.358 7.5-7.5 7.5h-9.346v9.346c0 4.142-3.358 7.5-7.5 7.5zm179.862-142.345c-4.411 0-8-3.589-8-8s3.589-8 8-8 8 3.589 8 8-3.589 8-8 8zm-47.046-19.654c-12.407 0-22.5-10.093-22.5-22.5s10.093-22.5 22.5-22.5 22.5 10.093 22.5 22.5-10.094 22.5-22.5 22.5zm0-30c-4.136 0-7.5 3.364-7.5 7.5 0 4.135 3.364 7.5 7.5 7.5 4.135 0 7.5-3.365 7.5-7.5 0-4.136-3.365-7.5-7.5-7.5zm81.302 0c-4.142 0-7.5-3.358-7.5-7.5v-9.346h-9.346c-4.142 0-7.5-3.358-7.5-7.5s3.358-7.5 7.5-7.5h9.346v-9.346c0-4.142 3.358-7.5 7.5-7.5s7.5 3.358 7.5 7.5v9.346h9.346c4.142 0 7.5 3.358 7.5 7.5s-3.358 7.5-7.5 7.5h-9.346v9.346c0 4.142-3.358 7.5-7.5 7.5z"/></g></svg>