<svg id="Capa_1" enable-background="new 0 0 512 512" viewBox="0 0 512 512" xmlns="http://www.w3.org/2000/svg"><g><path d="m277.416 129.46c1.355-2.969 2.116-6.264 2.116-9.735 0-10.354-6.724-19.16-16.032-22.3v-89.925c0-4.142-3.358-7.5-7.5-7.5s-7.5 3.358-7.5 7.5v89.926c-9.308 3.139-16.032 11.946-16.032 22.3 0 12.976 10.557 23.533 23.532 23.533 2.739 0 12.478 8.835 21.012 48.094 3.161 14.539 5.717 31.134 7.617 49.131h-57.24c.534-5.06 1.115-10.023 1.752-14.852.542-4.106-2.349-7.875-6.455-8.416-4.11-.544-7.875 2.349-8.416 6.455-.72 5.459-1.376 11.072-1.967 16.813h-42.525c.567-2.029 1.148-4.046 1.759-6.036 1.215-3.959-1.009-8.155-4.969-9.371-3.959-1.219-8.155 1.008-9.371 4.968-1.052 3.425-2.041 6.906-2.968 10.438h-27.565c3.917-9.436 8.555-18.496 13.896-27.094 2.186-3.519 1.105-8.143-2.414-10.329-3.521-2.186-8.143-1.104-10.329 2.414-6.849 11.026-12.621 22.75-17.29 35.009h-12.483c7.264-14.391 16.527-27.842 27.645-39.949 2.801-3.051 2.599-7.795-.452-10.597-3.051-2.801-7.795-2.6-10.597.452-32.573 35.472-50.512 81.548-50.512 129.74.001 105.798 86.074 191.871 191.872 191.871s191.871-86.073 191.871-191.871c0-98.558-74.701-179.985-170.455-190.669zm143.222 255.314h-14.14c3.045-10.206 5.377-20.743 6.936-31.505.594-4.099-2.248-7.904-6.347-8.498-4.099-.598-7.904 2.249-8.498 6.347-1.674 11.557-4.298 22.827-7.791 33.656h-89.72c1.643-20.438 2.502-42.245 2.502-64.646 0-22.4-.86-44.208-2.502-64.645h89.72c3.493 10.828 6.116 22.098 7.791 33.655.541 3.735 3.747 6.426 7.413 6.426.358 0 .72-.026 1.084-.079 4.1-.594 6.941-4.398 6.347-8.498-1.559-10.762-3.891-21.299-6.936-31.505h14.141c7.894 20.033 12.233 41.842 12.233 64.645 0 22.805-4.339 44.614-12.233 64.647zm-341.339-57.145h17.025c.628 19.742 3.721 38.966 9.119 57.146h-14.081c-7.024-17.826-11.221-37.06-12.063-57.146zm32.034 0h33.048c.435 19.744 2.58 38.969 6.316 57.146h-29.488c-5.751-17.826-9.187-37.06-9.876-57.146zm97.122 0c.169 19.766 1.009 38.997 2.467 57.146h-44.912c-3.921-18.056-6.172-37.305-6.627-57.146zm77.579 57.145h-60.067c-1.485-18.089-2.339-37.329-2.511-57.146h65.09c-.173 19.817-1.027 39.058-2.512 57.146zm25.987 79.129c-9.872 12.917-21.02 22.427-32.869 27.858 3.542-7.285 6.771-16.559 9.708-27.858zm-19.674-15c3.05-14.694 5.522-31.265 7.362-49.129h42.522c-5.212 18.667-12.095 35.214-20.212 49.129zm-15.334 0h-42.025c-3.16-14.539-5.717-31.132-7.616-49.129h57.258c-1.901 17.997-4.457 34.591-7.617 49.129zm-88.171-2.094c-7.881-13.944-14.293-29.82-19.109-47.034h42.558c1.84 17.864 4.312 34.435 7.362 49.129h-29.599c-.406-.695-.812-1.387-1.212-2.095zm34.298 17.094c2.943 11.321 6.179 20.609 9.729 27.9-11.737-5.362-22.855-14.794-32.835-27.9zm-68.933-64.129c4.682 17.797 10.962 34.357 18.71 49.129h-16.072c-12.226-14.053-22.458-30.664-30.115-49.129zm17.549 64.129h9.936c3.76 5.75 7.717 11.011 11.844 15.777-7.656-4.489-14.939-9.779-21.78-15.777zm66.937 0h34.614c-7.467 26.585-14.959 33.097-17.307 33.097s-9.84-6.512-17.307-33.097zm80.467 14.935c3.909-4.579 7.616-9.583 11.127-14.935h9.997c-6.914 6.05-14.23 11.322-21.853 15.772.243-.279.487-.553.729-.837zm36.045-29.935h-16.116c7.62-14.541 13.919-31.085 18.667-49.129h27.524c-7.567 18.267-17.727 34.927-30.075 49.129zm-35.833-287.235c-.312-.367-.627-.724-.941-1.085 7.623 4.451 14.939 9.722 21.853 15.772h-9.997c-3.447-5.255-7.083-10.176-10.915-14.687zm35.834 29.687c12.348 14.202 22.507 30.863 30.075 49.129h-27.524c-4.748-18.045-11.049-34.586-18.67-49.129zm58.688 49.129h-12.48c-8.036-21.117-19.25-40.446-33.125-56.909 18.867 15.542 34.465 34.913 45.605 56.909zm-157.894-129.291c4.705 0 8.532 3.828 8.532 8.532 0 4.705-3.828 8.533-8.532 8.533s-8.532-3.828-8.532-8.533c0-4.704 3.827-8.532 8.532-8.532zm56.044 65.162h-23.184c-2.939-11.306-6.171-20.585-9.715-27.873 11.867 5.427 23.023 14.944 32.899 27.873zm-19.697 15h29.691c8.109 13.912 14.983 30.46 20.193 49.129h-42.522c-1.84-17.864-4.313-34.435-7.362-49.129zm-6.313 64.129c1.485 18.089 2.339 37.329 2.511 57.145h-65.089c.174-19.648 1.033-38.934 2.53-57.145zm-75.096 0c-1.468 18.257-2.311 37.532-2.482 57.145h-49.066c.462-19.608 2.727-38.957 6.675-57.145zm-60.199 0c-3.757 18.295-5.912 37.611-6.353 57.145h-33.064c.67-19.821 4-39.047 9.832-57.145zm-45.291 0c-5.421 18.217-8.51 37.419-9.134 57.145h-17.02c.83-19.761 4.932-39.042 12.037-57.145zm-7.342 144.29h12.414c7.74 20.373 18.493 39.149 32.001 55.501.395.478.798.94 1.196 1.412-18.87-15.542-34.469-34.915-45.611-56.913zm270.183 56.909c13.875-16.463 25.089-35.792 33.125-56.909h12.48c-11.141 21.996-26.738 41.367-45.605 56.909z"/><path d="m135.758 175.323c26.805 0 48.613 21.808 48.613 48.613 0 4.142 3.358 7.5 7.5 7.5s7.5-3.358 7.5-7.5c0-26.805 21.808-48.613 48.613-48.613 4.142 0 7.5-3.358 7.5-7.5s-3.358-7.5-7.5-7.5c-26.805 0-48.613-21.808-48.613-48.613 0-4.142-3.358-7.5-7.5-7.5s-7.5 3.358-7.5 7.5c0 26.806-21.808 48.613-48.613 48.613-4.142 0-7.5 3.358-7.5 7.5s3.358 7.5 7.5 7.5zm56.113-33.667c5.942 11.089 15.077 20.224 26.166 26.167-11.089 5.942-20.224 15.077-26.166 26.166-5.942-11.089-15.077-20.224-26.166-26.166 11.089-5.943 20.224-15.078 26.166-26.167z"/><path d="m408.307 312.629c-17.965 0-32.581-14.616-32.581-32.581 0-4.142-3.358-7.5-7.5-7.5s-7.5 3.358-7.5 7.5c0 17.965-14.616 32.581-32.581 32.581-4.142 0-7.5 3.358-7.5 7.5s3.358 7.5 7.5 7.5c17.965 0 32.581 14.616 32.581 32.581 0 4.142 3.358 7.5 7.5 7.5s7.5-3.358 7.5-7.5c0-17.965 14.616-32.581 32.581-32.581 4.142 0 7.5-3.358 7.5-7.5s-3.358-7.5-7.5-7.5zm-40.081 21.964c-3.72-5.801-8.663-10.744-14.463-14.464 5.801-3.72 10.743-8.663 14.463-14.464 3.721 5.801 8.663 10.744 14.464 14.464-5.802 3.72-10.744 8.663-14.464 14.464z"/></g><g/><g/><g/><g/><g/><g/><g/><g/><g/><g/><g/><g/><g/><g/><g/></svg>