<svg id="Layer_1" height="512" viewBox="0 0 64 64" width="512" xmlns="http://www.w3.org/2000/svg" data-name="Layer 1"><path d="m20.3682 24.43a3.363 3.363 0 0 0 4.0664 2.4335l1.9731-.5151a6.6554 6.6554 0 0 0 10.0647-2.4884l2.0588-.5179a3.3616 3.3616 0 0 0 2.4356-4.0586l-.3789-1.5146a3.3473 3.3473 0 0 0 -3.4879-2.521 6.939 6.939 0 0 0 -8.1575-4.3152l-2.0713.5165a6.9432 6.9432 0 0 0 -5.1663 7.6874 3.3421 3.3421 0 0 0 -1.7155 3.7765zm14.3828-.7383a5.0362 5.0362 0 0 1 -7.4533 1.3l-1.4362-5.8782a4.9967 4.9967 0 0 1 3.367-2.878 5.0482 5.0482 0 0 1 5.5225 7.4559zm2.17-6.8a1.7475 1.7475 0 0 1 2.1084 1.2666l.3789 1.5156a1.747 1.747 0 0 1 -1.2676 2.1094l-1.1338.285a6.6164 6.6164 0 0 0 -.1309-2.5683v.001a6.581 6.581 0 0 0 -1.0977-2.3256zm-12.9239-1.4669c1.071-1.98 3.3115-2.4949 5.335-2.9335a5.2953 5.2953 0 0 1 6.1606 3.1l-1.0277.2555a6.6135 6.6135 0 0 0 -10.0372 2.49l-1.1481.2978a5.255 5.255 0 0 1 .7174-3.2098zm-2.253 5.7822c.4039-.8507 1.8993-.9582 2.68-1.209l1.1959 4.8956-1.584.413a1.7477 1.7477 0 0 1 -2.1093-1.2656c-.1558-.7935-.7377-2.0831-.1826-2.834zm37.4449 31.9767-3.1158-6.673a1.81 1.81 0 0 0 -1.6347-1.0419h-2.3276c-2.4958-1.7933-8.1521-2.1783-11.7283-1.4675l-1.7693-8.723a.6256.6256 0 0 1 .3818-.7051l6.21-2.4765a3.9946 3.9946 0 0 0 2.582-2.8008l2.4317-9.5479a3.1124 3.1124 0 0 0 -6.0118-1.6123l-2.2627 8.0323a.9829.9829 0 0 1 -.6494.6718l-4.92 1.5713a17.2593 17.2593 0 0 1 -6.6865.1914c-2.6661-.5458-4.8581-2.8048-7.44.4551l-9.5784 13.541a3.0482 3.0482 0 0 0 -.52 2.1384 6.9594 6.9594 0 0 0 -1.3786.7318h-2.0614a1.8107 1.8107 0 0 0 -1.6348 1.0412l-3.1113 6.6716a2.9158 2.9158 0 0 0 -.31 1.7169 2.1163 2.1163 0 0 0 2.1143 2.1142h22.84a2.2442 2.2442 0 0 0 2.1142-2.7383l.0479-6.9892a1.7886 1.7886 0 0 0 -.5244-1.2832c-.6247-.7571-2.134-.4922-2.9856-.5332l-1.9019-10.6417a.8092.8092 0 0 0 -1.4473-.3222l-7.5654 10.6943a1.4479 1.4479 0 0 1 -2.3632-1.6729l9.5634-13.52c1.4349-2.2628 3.678-.1681 5.8145.1689a18.783 18.783 0 0 0 7.4541-.2187l4.9687-1.585a2.5873 2.5873 0 0 0 1.708-1.7676l2.2627-8.0312a1.506 1.506 0 0 1 2.9082.7793l-2.4316 9.5478a2.4126 2.4126 0 0 1 -1.584 1.6914l-6.2471 2.49a2.2318 2.2318 0 0 0 -1.36 2.5166l1.7787 8.77a8.3925 8.3925 0 0 0 -2.4463 1.1007h-2.1384a1.8063 1.8063 0 0 0 -1.8034 1.804v7.6259a2.1163 2.1163 0 0 0 2.1142 2.1143h22.84a2.1163 2.1163 0 0 0 2.1142-2.1143 2.9793 2.9793 0 0 0 -.3094-1.7147zm-30.0738 1.7147a.5077.5077 0 0 1 -.5068.5069h-22.8398a.5077.5077 0 0 1 -.5069-.5069c.0065-.4176-.1146-1.1252.5069-1.1367h22.84c.6137.0118.5062.7159.5066 1.1367zm-1.3134-7.3213a2.0613 2.0613 0 0 0 -.0647-.5009h1.23a.1887.1887 0 0 1 .1963.1972l-.0339 4.9535a2.0934 2.0934 0 0 0 -.5208-.0726h-22.3918l2.3153-4.9658c.0359-.201.8115-.0828.9906-.1123-1.0052 5.877 18.3132 5.7297 18.279.5009zm-3.6875-10.5771 1.414 7.911a16.5274 16.5274 0 0 0 -6.1365-1.2349zm-8.9443 10.4209c1.4079.0493 2.39-.9953 3.09-2.1453 4.2488-.161 8.0964 1.3724 7.9339 2.3016 0 .9179-3.0174 2.3066-7.5653 2.3066-5.2029-.0587-10.2262-1.9451-5.8756-3.659a3.0555 3.0555 0 0 0 2.417 1.1961zm21.9763-.5322c1.1461-.87 3.6111-1.5979 7.095-1.6192 4.5479 0 7.5654 1.3887 7.5654 2.3076s-3.0175 2.3067-7.5654 2.3067c-4.5587-.0168-8.9353-1.5464-7.0951-2.9951zm-3.1091.3838c-.0215-.3232.6734-.1593 1.096-.1963-1.0851 5.9072 19.3007 5.908 18.2163 0 .3227.0319 1.2418-.0935 1.2678.1132l2.3189 4.9649h-22.3923a2.0934 2.0934 0 0 0 -.5068.0683zm23.8535 7.6259a.5077.5077 0 0 1 -.5068.5069h-22.84a.5077.5077 0 0 1 -.5068-.5069c.0065-.4176-.1146-1.1252.5069-1.1367h22.84c.6137.0118.506.7159.5066 1.1367zm-13.7907-6.7363a.824.824 0 1 0 .2822-1.6075.824.824 0 1 0 -.2822 1.6075zm-25.7529 0a.824.824 0 1 0 .2822-1.6075.824.824 0 1 0 -.2826 1.6075z"/></svg>