<svg height="512" viewBox="0 0 64 64" width="512" xmlns="http://www.w3.org/2000/svg"><g id="Layer_10" data-name="Layer 10"><path d="m49 15.34-11.1-1.05h-.27l-10.9 3.14-10.93-2.08a.75.75 0 0 0 -.89.74v18.65a.75.75 0 0 0 1.5 0v-17.74l9.59 1.82v12.53a.75.75 0 0 0 1.5 0v-12.59l9.61-2.76v28l-7.78 2.92a.75.75 0 0 0 .27 1.45.82.82 0 0 0 .26 0l8.11-3 10.92 1a.75.75 0 0 0 .82-.74v-29.54a.75.75 0 0 0 -.71-.75zm-.82 29.4-9.6-.91v-28l9.6.91z"/><path d="m29.51 34.49a.74.74 0 0 0 -.76-.18l-16.99 5.69a.75.75 0 0 0 0 1.4l7.79 3.12 3.12 7.79a.75.75 0 0 0 .69.47.74.74 0 0 0 .69-.51l5.66-17a.74.74 0 0 0 -.2-.78zm-6.25 15.33-2.48-6.19a.69.69 0 0 0 -.41-.41l-6.19-2.48 13.62-4.54z"/><path d="m32 60.75a28.75 28.75 0 1 1 28.75-28.75 28.79 28.79 0 0 1 -28.75 28.75zm0-56a27.25 27.25 0 1 0 27.25 27.25 27.28 27.28 0 0 0 -27.25-27.25z"/></g></svg>