<svg id="Capa_1" enable-background="new 0 0 512 512" height="512" viewBox="0 0 512 512" width="512" xmlns="http://www.w3.org/2000/svg"><g><path d="m326.851 48.236c-75.498 0-136.92 61.423-136.92 136.921s61.422 136.921 136.92 136.921 136.921-61.423 136.921-136.921-61.423-136.921-136.921-136.921zm0 253.842c-64.47 0-116.92-52.45-116.92-116.921s52.451-116.921 116.92-116.921c64.471 0 116.921 52.45 116.921 116.921s-52.451 116.921-116.921 116.921z"/><path d="m326.851.007c-102.092 0-185.149 83.058-185.149 185.149 0 28.036 6.276 54.631 17.477 78.47l-19.021 19.021c-8.28 8.281-10.585 20.306-6.92 30.674l-123.559 123.559c-6.242 6.242-9.679 14.539-9.679 23.366s3.437 17.125 9.678 23.366l18.717 18.718c6.442 6.441 14.904 9.663 23.366 9.663s16.924-3.222 23.366-9.663l123.559-123.559c3.181 1.125 6.517 1.689 9.854 1.689 7.54 0 15.08-2.87 20.82-8.609l19.021-19.021c23.839 11.202 50.433 17.477 78.469 17.477 102.092-.001 185.15-83.058 185.15-185.15s-83.058-185.15-185.149-185.15zm-265.867 488.18c-5.085 5.086-13.361 5.086-18.446 0l-18.718-18.718c-2.464-2.464-3.82-5.739-3.82-9.224 0-3.483 1.356-6.759 3.821-9.223l121.536-121.536 37.164 37.164zm154.234-130.479c-3.681 3.682-9.673 3.683-13.355 0l-47.563-47.564c-3.682-3.682-3.682-9.673 0-13.354l14.804-14.804c15.252 24.756 36.162 45.667 60.918 60.918zm111.633-7.402c-91.063 0-165.149-74.086-165.149-165.149s74.085-165.15 165.149-165.15 165.149 74.086 165.149 165.15-74.086 165.149-165.149 165.149z"/><path d="m327.716 107.358c-21.344-.443-39.691 15.176-42.639 36.299-.271 1.931-.407 3.907-.407 5.873 0 5.522 4.478 10 10 10s10-4.478 10-10c0-1.043.072-2.087.215-3.106 1.549-11.098 11.177-19.269 22.429-19.069 11.562.232 21.089 9.449 21.688 20.981.319 6.159-1.835 12.005-6.066 16.461-4.234 4.459-9.946 6.915-16.084 6.915-5.522 0-10 4.478-10 10v33.65c0 5.522 4.478 10 10 10s10-4.478 10-10v-24.865c7.795-1.916 14.992-6.036 20.588-11.929 8.045-8.474 12.142-19.578 11.535-31.269-1.141-21.954-19.264-39.499-41.259-39.941z"/><circle cx="326.85" cy="252.964" r="10"/></g></svg>