<svg id="Icons" viewBox="0 0 60 60" xmlns="http://www.w3.org/2000/svg"><path d="m14 48c-2.206 0-4 1.794-4 4s1.794 4 4 4 4-1.794 4-4-1.794-4-4-4zm0 6c-1.103 0-2-.897-2-2s.897-2 2-2 2 .897 2 2-.897 2-2 2z"/><path d="m1.105 24.171 2.895 1.447v20.382c-1.103 0-2 .897-2 2v2c0 1.103.897 2 2 2h2c0 4.411 3.589 8 8 8s8-3.589 8-8h2.026c-.635.838-1.026 1.87-1.026 3 0 2.757 2.243 5 5 5s5-2.243 5-5c0-1.13-.391-2.162-1.026-3h4.051c-.635.838-1.026 1.87-1.026 3 0 2.757 2.243 5 5 5s5-2.243 5-5c0-1.13-.391-2.162-1.026-3h3.026v3c0 1.654 1.346 3 3 3h7.675c1.282 0 2.325-1.043 2.325-2.325 0-.741-.358-1.444-.958-1.88l-8.956-6.514c1.702-1.212 2.914-3.826 2.914-6.781 0-4.065-2.29-7.5-5-7.5h-1.834l1.726-11.219c.654-.329 1.108-1 1.108-1.781v-2c0-.686-.348-1.293-.876-1.653l.228-1.359c2.594-.181 4.648-2.349 4.648-4.988 0-1.603-.76-3.084-2.022-4.014.015-.163.022-.324.022-.486.001-3.033-2.467-5.5-5.499-5.5-1.224 0-2.394.401-3.333 1.125-.881-.724-1.99-1.125-3.167-1.125-1.255 0-2.438.46-3.344 1.284-1.066-.373-2.246-.373-3.312 0-.906-.824-2.089-1.284-3.344-1.284-1.094 0-2.153.361-3.015 1.012-1.032-.657-2.242-1.012-3.485-1.012-1.557 0-3.053.559-4.217 1.557-.709-.366-1.484-.557-2.283-.557-1.584 0-3.062.752-3.998 2h-.002c-2.206 0-4 1.794-4 4 0 1.897 1.327 3.489 3.102 3.898.409 1.774 2.002 3.102 3.898 3.102.813 0 1.598-.248 2.252-.693.933 1.066 2.282 1.693 3.748 1.693.32 0 .636-.03.944-.09.923 1.291 2.438 2.09 4.056 2.09 1.394 0 2.719-.591 3.649-1.589 1.151.61 2.527.754 3.775.379.362.724.945 1.313 1.649 1.702-.043.163-.073.331-.073.508v2c0 .781.454 1.452 1.108 1.781l1.726 11.219h-2.834v-3.5c0-1.93-1.57-3.5-3.5-3.5s-3.5 1.57-3.5 3.5v3.5h-3v-7.382l2.895-1.447c.682-.341 1.105-1.026 1.105-1.789v-1.382c0-1.103-.897-2-2-2h-25c-1.103 0-2 .897-2 2v1.382c0 .763.424 1.448 1.105 1.789zm21.895 21.829h-3.726c-1.41-1.241-3.253-2-5.274-2s-3.864.759-5.274 2h-2.726v-20h17zm-19 4v-2h3.082c-.36.619-.635 1.29-.819 2zm10 8c-3.309 0-6-2.691-6-6s2.691-6 6-6 6 2.691 6 6-2.691 6-6 6zm17-3c0 1.654-1.346 3-3 3s-3-1.346-3-3 1.346-3 3-3 3 1.346 3 3zm12 0c0 1.654-1.346 3-3 3s-3-1.346-3-3 1.346-3 3-3 3 1.346 3 3zm-21.263-5c-.184-.71-.46-1.381-.819-2h26.082v2zm36.263 5.675c0 .18-.146.325-.325.325h-7.675c-.552 0-1-.448-1-1v-6.036l8.866 6.448c.084.062.134.159.134.263zm-7-15.175c0 2.316-.949 4.285-2 5.099v-10.197c1.051.813 2 2.783 2 5.099zm-16.522-26.959c-.301-.146-.653-.132-.941.036-1.102.644-2.508.519-3.479-.286-.225-.187-.521-.266-.809-.215-.288.05-.539.223-.688.475-.54.908-1.497 1.451-2.561 1.451-1.143 0-2.197-.664-2.688-1.69-.227-.472-.775-.69-1.263-.502-.336.13-.68.193-1.05.193-1.146 0-2.175-.641-2.683-1.672-.155-.315-.465-.525-.814-.555-.35-.031-.689.127-.895.412-.373.518-.959.814-1.608.814-1.103 0-2-.897-2-2 0-.552-.447-1-1-1-1.103 0-2-.897-2-2s.897-2 2-2c.126 0 .213.007.28.023.433.104.885-.096 1.103-.486.529-.948 1.532-1.537 2.617-1.537.65 0 1.279.214 1.82.62.412.311.998.254 1.346-.134.843-.944 2.059-1.486 3.334-1.486 1.068 0 2.099.377 2.901 1.061.408.349 1.022.312 1.387-.087.574-.628 1.359-.974 2.212-.974.911 0 1.756.403 2.319 1.105.3.375.823.483 1.252.256.885-.474 1.973-.474 2.857 0 .427.228.952.118 1.252-.256.563-.703 1.408-1.105 2.319-1.105.929 0 1.786.415 2.353 1.137.185.235.465.375.764.382.3.018.586-.12.78-.347.644-.745 1.592-1.173 2.604-1.173 1.93 0 3.5 1.57 3.5 3.5 0 .249-.028.499-.087.765-.097.438.111.887.507 1.098.975.518 1.58 1.528 1.58 2.637 0 1.654-1.346 3-3 3-.105 0-.205-.004-.305-.022-.265-.052-.538.009-.758.162-.22.154-.369.39-.414.655l-.37 2.206h-9.154c-.989 0-1.836-.729-1.97-1.697-.045-.331-.253-.617-.553-.763zm12.522 4.459v2h-10v-2zm-8.834 4h7.668l-1.692 11h-4.284zm-8.166 7.5c0-.827.673-1.5 1.5-1.5s1.5.673 1.5 1.5v3.5h-3zm17 5.5v11h-22v-11zm-45-14h25v1.382l-3.236 1.618h-18.528l-3.236-1.618z"/><path d="m10 37h9c1.103 0 2-.897 2-2v-5c0-1.103-.897-2-2-2h-9c-1.103 0-2 .897-2 2v5c0 1.103.897 2 2 2zm0-7h9l.002 5h-9.002z"/></svg>