<svg id="Wedding_Cake" enable-background="new 0 0 64 64" height="512" viewBox="0 0 64 64" width="512" xmlns="http://www.w3.org/2000/svg"><path d="m55.31418 44.33413c-.31251-.72054-.99313-1.16673-1.77789-1.16673h-.92709v-12.0397c0-2.25441-1.83344-4.08784-4.08876-4.08784h-2.48623v-12.04227c0-.03473-.00348-.07727-.00867-.12153-.06079-2.18849-1.88031-3.96198-4.0749-3.96198h-4.49527c.90414-.98471 1.72412-2.22242 2.30489-3.74597v-.01001c.62002-1.62005.62002-3.16008.04999-4.34011-.02002-.04004-.04999-.13001-.07001-.17005-.62001-1.28001-1.73004-2.20002-3.04008-2.52004-1.25004-.31001-2.56008-.05005-3.60015.70998-.44997.33004-.81002.67007-1.10001.97007-.34004-.35005-.70004-.67-1.10001-.97006-1.04007-.76003-2.35011-1.01999-3.60016-.70998-1.32005.32002-2.42006 1.24003-3.07011 2.59005-.61001 1.28007-.61001 2.8201.01001 4.45016.58077 1.52355 1.40074 2.76126 2.30488 3.74597h-4.48898c-2.19893 0-4.02278 1.77697-4.08271 3.96894-.00433.04169-.0069.08246-.0069.11457v.86734l-.00262.00165c0 .00446.00256.00842.00262.01288v11.1604h-2.48622c-2.25361 0-4.08705 1.83344-4.08705 4.08784v1.22795l-.00696.02734c0 .0108.00659.02014.00696.03089v10.75351h-.92886c-.7839 0-1.46532.44618-1.77783 1.16673-.31343.71878-.17451 1.52264.36024 2.09553 1.75787 1.88379 4.24501 2.96372 6.82237 2.96372h13.07123v4.12624c0 1.80011-.88003 3.48016-2.30006 4.38015-1.11002.70004-1.99006 1.63006-2.5201 2.66012-.39003.74002-.36 1.60003.07001 2.31007.43.70998 1.18002 1.13004 2.01007 1.13004h11.60036c.83004 0 1.58007-.42006 2.01008-1.13004.43-.71004.46004-1.57006.07001-2.31007-.53004-1.03006-1.41008-1.96009-2.5201-2.66012-1.42003-.89999-2.30006-2.58004-2.30006-4.38015v-4.12624h13.07318c2.57821 0 5.06273-1.07993 6.81974-2.96372.53651-.57289.67366-1.37675.36115-2.09553zm-29.41436-37.80605c-.31001-.80001-.57003-1.99006-.04004-3.10008.39003-.82003 1.05002-1.38005 1.87006-1.58007.20002-.04999.41005-.07001.61007-.07001.54 0 1.06003.17005 1.50005.49001.74001.55006 1.18003 1.09006 1.44004 1.46007.15998.22999.43001.37.72.37.28004 0 .55-.14002.71999-.37001.26002-.37001.70004-.91 1.44005-1.46007.60006-.44997 1.3701-.6 2.11012-.42.81002.20002 1.48003.76003 1.89001 1.64007.51003 1.05002.25001 2.23005-.06 3.04008-.78524 2.07282-2.06947 3.47924-3.27147 4.38601h-5.65741c-1.202-.90676-2.48623-2.31318-3.27147-4.386zm-6.15596 8.51035c.00348-.02954.00525-.05817.0061-.08771.02344-1.26652 1.03647-2.2588 2.30568-2.2588h19.895c1.24485 0 2.2762 1.01309 2.29878 2.25795 0 .03211.00342.06336.0069.09546v.42934c-1.35069 1.15708-3.25102 1.81384-5.27801 1.81384-2.60427 0-5.0037-1.10245-6.26247-2.87857-.16669-.23438-.43751-.37416-.72573-.37416-.36543-.02869-.56166.14063-.72829.37935-1.24052 1.77264-3.63128 2.87339-6.23989 2.87339-2.02753 0-3.92829-.65725-5.27807-1.81323zm0 2.61215c1.5122.90964 3.35314 1.41582 5.27807 1.41582 2.74057 0 5.31103-1.03391 6.97166-2.75449 1.67541 1.72058 4.2502 2.75449 6.98473 2.75449 1.92463 0 3.76569-.50636 5.27801-1.41631v9.38806h-24.51247zm-6.57322 13.47712c0-1.27348 1.03562-2.30995 2.30916-2.30995h33.04064c1.27433 0 2.31087 1.03647 2.31087 2.30995v.81997c-1.32249.94754-3.07005 1.48485-4.86655 1.48485-2.5939 0-4.99327-1.11026-6.2607-2.89682-.16669-.2353-.43752-.37501-.72573-.37501-.00177 0-.00177 0-.00348 0-.28822.00085-.55904.14234-.72402.37935-1.25004 1.78393-3.64947 2.89249-6.2607 2.89249-2.61642 0-5.00633-1.10685-6.23641-2.88815-.16492-.23872-.43581-.38197-.72659-.38368-.00171 0-.00348 0-.00519 0-.28822 0-.55818.13972-.72488.37501-1.26744 1.78656-3.67377 2.89682-6.27981 2.89682-1.81396 0-3.51763-.52412-4.84659-1.4829v-.82193zm0 2.90635c1.43291.76321 3.10124 1.17637 4.84659 1.17637 2.73624 0 5.31622-1.04001 6.99773-2.76926 1.6546 1.72924 4.22499 2.76926 6.97514 2.76926 2.74496 0 5.32317-1.04172 6.99168-2.77274 1.67889 1.73101 4.25368 2.77274 6.98296 2.77274 1.75506 0 3.43016-.41371 4.86655-1.17814v9.13512h-37.66065zm23.23947 25.36576c.84006.54006 1.50005 1.22007 1.90009 1.98011.13001.26002.03003.48-.02002.57003-.04999.07996-.19996.26997-.49001.26997h-11.60035c-.29005 0-.44002-.19001-.49001-.26997-.05005-.09003-.15003-.31001-.02002-.57003.40004-.76003 1.06003-1.44005 1.91004-1.98011 1.92011-1.22001 3.1201-3.48009 3.1201-5.8802v-4.12624h2.57009v4.12624c0 2.40011 1.19004 4.66019 3.12009 5.8802zm17.24423-14.27922c-1.42192 1.5244-3.4342 2.4949-5.52106 2.4949h-32.26461c-2.08692 0-4.09913-.87326-5.52197-2.39766-.01819-.0191-.07288-.07813.11719-.27259h1.81781 39.43855 1.96363c.04169.09723-.01215.15625-.02954.17535z"/></svg>