<svg id="line" height="512" viewBox="0 0 64 64" width="512" xmlns="http://www.w3.org/2000/svg"><path d="m55.75342 16.16309h-5.08386c.92468-1.64505.29884-6.18052-.54324-8.70313-2.75882-8.11535-13.63154.70884-15.5151 2.37939-.81316-.65255-2.8209-.343-3.78558-.41217a2.75343 2.75343 0 0 0 -1.43564.41144c-1.86694-1.65855-12.75433-10.49148-15.512-2.38833-.84221 2.524-1.47417 7.0653-.54545 8.71278h-5.086a3.00328 3.00328 0 0 0 -3 3v10.57375a1.00006 1.00006 0 0 0 1 1h1.96v26.26318a3.00328 3.00328 0 0 0 3 3c5.32709.00036 41.58692 0 41.58692 0a3.00328 3.00328 0 0 0 3-3v-26.26318h1.96a1.00006 1.00006 0 0 0 1-1v-10.57373a3.00328 3.00328 0 0 0 -3.00005-3zm-18.5083 0c2.57723-2.37008 8.79845-3.74626 11.812-4.17338.20492 1.7078.17746 3.82554-1.10806 4.17338zm-1 12.57373c-.07411-.00784-8.4172.00565-8.49026 0v-10.57371s7.68.00149 8.49024 0zm8.55615-22.62354c2.6778-.66971 3.5694 1.75513 3.90727 3.90985-2.58446.3761-9.08323 1.58167-12.752 4.54987a16.64032 16.64032 0 0 0 -.12443-3.14133 26.528 26.528 0 0 1 8.96916-5.31839zm-13.97559 5.314h2.34864a.78343.78343 0 0 1 .78222.78271v3.95313h-3.91308v-3.95312a.78343.78343 0 0 1 .78222-.78275zm-15.02685-3.42142a2.75844 2.75844 0 0 1 3.40236-1.89255 26.5353 26.5353 0 0 1 8.96721 5.317 18.03032 18.03032 0 0 0 -.12491 3.141c-3.66928-2.9669-10.16617-4.1721-12.75022-4.5482.14313-.66306.30579-1.33897.50556-2.01725zm-.854 3.9834c3.12879.44317 8.918 1.72949 11.8855 4.17383h-10.7779c-1.28552-.34784-1.3125-2.46609-1.10761-4.17383zm-7.69825 7.17383a1.0013 1.0013 0 0 1 1-1h17.5083v10.57373c-1.19941-.00231-17.78992.00166-18.50844 0zm2.95996 37.83691v-26.26318h16.8833v27.26318h-15.8833a1.0013 1.0013 0 0 1 -1-1zm18.8833 1v-27.26318h5.82032v27.26318zm24.70362-1a1.0013 1.0013 0 0 1 -1 1h-15.8833v-27.26318h16.8833zm2.96-28.26318c-.63734.0038-17.39-.00274-18.50816 0l-.00014-10.57373h17.5083a1.0013 1.0013 0 0 1 1 1z"/></svg>