<svg id="Capa_1" enable-background="new 0 0 512 512" height="512" viewBox="0 0 512 512" width="512" xmlns="http://www.w3.org/2000/svg"><g><path d="m489.286 14.55c-.17-4.319-.313-6.635-.515-8.047-.011-.084-.024-.167-.038-.251-.195-1.213-.444-1.704-.819-2.356-.805-1.467-2.094-2.657-3.707-3.325-2.801-1.16-6.029-.52-8.173 1.626l-441.272 441.272c-14.814 14.814-16.385 38.569-3.575 54.079 7.126 8.628 17.584 13.879 28.694 14.407.625.03 1.248.044 1.871.044 10.46 0 20.577-4.166 28.001-11.59 7.815-7.815 11.88-18.245 11.448-29.366-.066-1.712.162-4.924 2.433-7.196l76.835-76.835c2.929-2.929 2.929-7.678 0-10.606-2.929-2.929-7.678-2.929-10.606 0l-76.835 76.835c-4.673 4.673-7.094 11.203-6.815 18.384.268 6.896-2.242 13.352-7.067 18.177-4.884 4.885-11.638 7.5-18.553 7.169-7-.333-13.335-3.521-17.841-8.976-7.94-9.614-6.791-24.513 2.616-33.92l118.459-118.458 85.414 85.414c1.464 1.464 3.384 2.197 5.303 2.197s3.839-.732 5.303-2.197l102.057-102.057c32.875-32.875 60.007-69.712 80.643-109.486 16.517-31.836 28.927-65.609 36.888-100.381 7.088-30.962 9.264-57.023 9.841-73.434.329-9.337.187-16.641.01-21.123zm-24.635 91.916c-7.719 33.442-19.709 65.922-35.639 96.539-19.897 38.245-46.044 73.694-77.714 105.364l-96.754 96.753-80.111-80.111 266.17-266.17c-2.55 23.084-8.279 52.965-20.606 86.14-19.355 52.088-50.1 99.429-91.379 140.709l-79.378 79.378c-2.929 2.929-2.929 7.678 0 10.606 1.464 1.464 3.384 2.197 5.303 2.197s3.839-.732 5.303-2.197l79.378-79.378c42.815-42.815 74.722-91.967 94.833-146.09 16.326-43.934 21.542-82.395 22.966-107.785l17.495-17.495c-.056 18.96-2.206 48.351-9.867 81.54z"/></g></svg>