<?xml version="1.0" encoding="iso-8859-1"?>
<!-- Generator: Adobe Illustrator 19.0.0, SVG Export Plug-In . SVG Version: 6.00 Build 0)  -->
<svg version="1.1" id="Capa_1" xmlns="http://www.w3.org/2000/svg" xmlns:xlink="http://www.w3.org/1999/xlink" x="0px" y="0px"
	 viewBox="0 0 404 404" style="enable-background:new 0 0 404 404;" xml:space="preserve">
<g>
	<g>
		<g>
			<path d="M70,293.087c2.762,0,5-2.239,5-5v-104c0-2.761-2.238-5-5-5s-5,2.239-5,5v104C65,290.848,67.238,293.087,70,293.087z"/>
			<path d="M386.917,187.087h-25.209v-21c0-2.761-2.238-5-5-5h-309c-2.762,0-5,2.239-5,5v21H17.083
				C7.663,187.087,0,194.751,0,204.17v0.833c0,9.42,7.663,17.084,17.083,17.084h25.625v70.055c0,27.54,22.405,49.945,49.945,49.945
				h219.111c27.539,0,49.944-22.405,49.944-49.946v-70.055h25.209c9.42,0,17.083-7.663,17.083-17.083v-0.833
				C404,194.751,396.337,187.087,386.917,187.087z M42,212.086H17.083c-3.905,0-7.083-3.177-7.083-7.083v-0.833
				c0-3.906,3.178-7.083,7.083-7.083v-0.001H42V212.086z M351.707,292.142c0,22.026-17.919,39.945-39.944,39.945H92.653
				c-22.026,0-39.945-17.919-39.945-39.945V171.087h298.999V292.142z M394,205.004c0,3.905-3.178,7.083-7.083,7.083H362v-14.999
				h24.917c3.905,0,7.083,3.177,7.083,7.083V205.004z"/>
			<path d="M41.01,154.087h322.396c1.745,0,3.365-0.91,4.274-2.401c0.907-1.492,0.971-3.348,0.169-4.898
				c-11.598-22.394-68.42-39.191-142.139-42.22v-5.283c6.1-3.487,10-10.023,10-17.222v-0.3c0-10.945-8.905-19.85-19.85-19.85h-27.3
				c-10.946,0-19.851,8.905-19.851,19.85v0.3c0,7.2,3.9,13.735,10,17.222v5.283c-73.718,3.029-130.54,19.826-142.138,42.22
				c-0.803,1.549-0.739,3.406,0.168,4.897C37.646,153.177,39.265,154.087,41.01,154.087z M178.708,82.064v-0.3
				c0-5.431,4.419-9.85,9.851-9.85h27.3c5.431,0,9.85,4.419,9.85,9.85v0.3c0,3.935-2.354,7.471-5.929,9.023h-35.143
				C181.062,89.535,178.708,85.999,178.708,82.064z M183.871,114.385c2.696-0.088,4.837-2.3,4.837-4.998v-8.3h27v8.3
				c0,2.699,2.141,4.91,4.837,4.998c67.92,2.212,114.481,15.617,131.99,29.702H51.881
				C69.394,130.003,115.957,116.597,183.871,114.385z"/>
		</g>
	</g>
</g>
<g>
</g>
<g>
</g>
<g>
</g>
<g>
</g>
<g>
</g>
<g>
</g>
<g>
</g>
<g>
</g>
<g>
</g>
<g>
</g>
<g>
</g>
<g>
</g>
<g>
</g>
<g>
</g>
<g>
</g>
</svg>
